<svg width="32" height="33" viewBox="0 0 32 33" fill="none" xmlns="http://www.w3.org/2000/svg">
<g clip-path="url(#clip0_10230_21983)">
<path d="M1.01941 16.4952C0.950553 8.27013 7.6827 1.55111 16.1917 1.54151C23.9973 1.53192 30.9752 7.84394 31.0562 16.3678C31.1345 24.6367 24.4442 31.4078 16.1755 31.4585C7.79072 31.5106 1.08962 24.8957 1.01941 16.4966V16.4952ZM10.4614 10.8698C10.2589 11.052 10.0874 11.1891 9.93756 11.3467C7.63005 13.7681 7.08321 18.0027 8.64405 21.3971C9.65131 23.5884 11.2905 24.9697 13.656 25.4398C16.1134 25.9263 18.3575 25.3 20.4111 23.9995C23.2439 22.2056 24.3619 18.9893 23.306 15.784C22.5499 13.49 20.989 11.8222 19.0582 10.4545C18.0861 9.76523 17.1504 9.00467 16.2876 8.17969C15.2236 7.16286 14.4189 5.9528 14.2744 4.41111C14.2447 4.09866 14.2704 3.78073 14.2704 3.46417L14.0611 3.41073C13.6371 4.35904 13.1241 5.27857 12.8081 6.26388C12.156 8.29891 12.5934 10.1599 14.0341 11.7153C14.6268 12.3553 15.3884 12.8322 16.0365 13.4255C16.6805 14.0176 17.3867 14.5849 17.8754 15.2975C19.3364 17.4257 18.9381 20.1528 17.0262 21.5972C16.0689 22.3208 14.9995 22.4989 13.9153 21.9494C12.9337 21.4519 12.4368 20.5749 12.3909 19.4621C12.3679 18.9112 12.4989 18.3672 13.0673 18.1644C13.7506 17.9204 14.4068 18.1232 14.9711 18.5536C15.5072 18.9633 15.1494 19.4224 14.8942 19.8732C16.6373 19.6471 17.2598 18.3699 16.2106 17.068C15.6098 16.3226 14.7416 15.7305 13.8869 15.2783C12.0938 14.3286 10.799 13.0487 10.4614 10.8711V10.8698ZM27.3323 14.8603C27.3323 15.8182 27.3728 16.794 27.3256 17.7656C27.1122 22.1892 23.7975 26.6265 19.6456 28.0079C15.4086 29.418 11.362 28.7684 7.46397 26.7362C7.3087 26.6553 7.15207 26.5758 6.99545 26.4963C7.39646 26.9719 7.84743 27.346 8.31865 27.6941C13.039 31.1735 19.2716 31.3489 23.6949 28.0983C25.8646 26.5046 27.7212 24.649 28.4881 21.9439C29.2186 19.3676 28.5988 17.0132 27.331 14.8603H27.3323ZM17.6068 3.31069C17.2922 4.30148 17.5771 5.06342 17.9497 5.79247C18.7693 7.39308 20.0884 8.53462 21.4886 9.57338C23.1912 10.8382 24.6143 12.2909 25.0653 14.6246C25.2206 12.3813 24.1472 9.84746 22.3865 8.32495C21.3968 7.46983 20.3058 6.73667 19.3107 5.8884C18.5546 5.24431 17.8835 4.50019 17.6068 3.31206V3.31069Z" fill="#F8F8F8"/>
<path d="M10.4614 10.8698C10.799 13.0473 12.0938 14.3273 13.8869 15.2769C14.7416 15.7292 15.6098 16.3212 16.2106 17.0667C17.2598 18.3699 16.6373 19.6458 14.8942 19.8719C15.1494 19.421 15.5072 18.9606 14.9711 18.5522C14.4068 18.1219 13.7506 17.9191 13.0673 18.163C12.4989 18.3658 12.3693 18.9099 12.3909 19.4608C12.4368 20.5735 12.9323 21.4506 13.9153 21.948C14.9995 22.4975 16.0689 22.318 17.0262 21.5958C18.9381 20.1514 19.3364 17.4244 17.8754 15.2961C17.3867 14.5835 16.6805 14.0162 16.0365 13.4242C15.3897 12.8308 14.6282 12.3539 14.0341 11.7139C12.5934 10.1585 12.1546 8.29755 12.8081 6.26252C13.1241 5.27858 13.6371 4.35904 14.0611 3.40936L14.2704 3.46281C14.2704 3.778 14.2447 4.09593 14.2744 4.40975C14.4189 5.95281 15.2236 7.16286 16.2876 8.17832C17.1504 9.0033 18.0861 9.76387 19.0582 10.4532C20.989 11.8208 22.5499 13.4886 23.306 15.7826C24.3632 18.988 23.2452 22.2043 20.4111 23.9981C18.3561 25.2986 16.1121 25.9249 13.656 25.4384C11.2891 24.9697 9.65131 23.587 8.64405 21.3957C7.08321 18.0013 7.63005 13.7668 9.93756 11.3453C10.0874 11.1877 10.2603 11.0507 10.4614 10.8684V10.8698Z" fill="url(#paint0_linear_10230_21983)"/>
<path d="M27.3337 14.8604C28.6002 17.0132 29.2199 19.3676 28.4908 21.9439C27.7239 24.6491 25.8673 26.5046 23.6975 28.0983C19.2729 31.3489 13.0403 31.1721 8.32135 27.6941C7.85012 27.3474 7.39915 26.9719 6.99814 26.4963C7.15476 26.5758 7.31004 26.6553 7.46666 26.7362C11.3634 28.7698 15.41 29.418 19.6483 28.0079C23.8002 26.6265 27.1149 22.1906 27.3283 17.7656C27.3755 16.794 27.335 15.8183 27.335 14.8604H27.3337Z" fill="url(#paint1_linear_10230_21983)"/>
<path d="M17.6067 3.3107C17.8835 4.5002 18.5559 5.24295 19.3107 5.88703C20.3058 6.7353 21.3968 7.46846 22.3865 8.32359C24.1472 9.84609 25.2206 12.3799 25.0653 14.6233C24.6143 12.2895 23.1912 10.8369 21.4886 9.57201C20.0898 8.53326 18.7693 7.39309 17.9497 5.7911C17.577 5.06206 17.2921 4.30012 17.6067 3.30933V3.3107Z" fill="url(#paint2_linear_10230_21983)"/>
<path opacity="0.8" fill-rule="evenodd" clip-rule="evenodd" d="M16.0824 1.45927C7.89831 1.45927 1.26381 8.19293 1.26381 16.4993C1.26381 24.8057 7.89831 31.5394 16.0824 31.5394C24.2664 31.5394 30.9009 24.8057 30.9009 16.4993C30.9009 8.19293 24.2664 1.45927 16.0824 1.45927ZM0.318665 16.4993C0.318665 7.66314 7.37632 0.5 16.0824 0.5C24.7884 0.5 31.8461 7.66314 31.8461 16.4993C31.8461 25.3355 24.7884 32.4986 16.0824 32.4986C7.37632 32.4986 0.318665 25.3355 0.318665 16.4993Z" fill="url(#paint3_linear_10230_21983)"/>
</g>
<defs>
<linearGradient id="paint0_linear_10230_21983" x1="7.6962" y1="14.478" x2="23.7637" y2="14.478" gradientUnits="userSpaceOnUse">
<stop stop-color="#0E2459"/>
<stop offset="0.83734" stop-color="#2B66CE"/>
</linearGradient>
<linearGradient id="paint1_linear_10230_21983" x1="7.69619" y1="27.4282" x2="28.1668" y2="15.769" gradientUnits="userSpaceOnUse">
<stop stop-color="#162E65"/>
<stop offset="1" stop-color="#2B66CE"/>
</linearGradient>
<linearGradient id="paint2_linear_10230_21983" x1="21.2759" y1="3.30933" x2="21.2759" y2="14.6233" gradientUnits="userSpaceOnUse">
<stop stop-color="#162E65"/>
<stop offset="1" stop-color="#3065B0"/>
</linearGradient>
<linearGradient id="paint3_linear_10230_21983" x1="-5.46835" y1="16.5336" x2="45.8397" y2="16.5336" gradientUnits="userSpaceOnUse">
<stop stop-color="#0C1948"/>
<stop offset="0.796875" stop-color="#2B66CE"/>
</linearGradient>
<clipPath id="clip0_10230_21983">
<rect width="32" height="32" fill="white" transform="translate(0 0.5)"/>
</clipPath>
</defs>
</svg>
